<svg xmlns="http://www.w3.org/2000/svg" width="48" height="48" viewBox="0 0 48 48" fill="none">
  <rect width="48" height="48" rx="8" fill="#0F172A"/>
  <path d="M24 10.5C16.5442 10.5 10.5 16.5442 10.5 24C10.5 31.4558 16.5442 37.5 24 37.5C31.4558 37.5 37.5 31.4558 37.5 24C37.5 16.5442 31.4558 10.5 24 10.5ZM7.5 24C7.5 14.8873 14.8873 7.5 24 7.5C33.1127 7.5 40.5 14.8873 40.5 24C40.5 33.1127 33.1127 40.5 24 40.5C14.8873 40.5 7.5 33.1127 7.5 24Z" fill="white"/>
  <path d="M22.5 16.5C22.5 15.6716 23.1716 15 24 15C24.8284 15 25.5 15.6716 25.5 16.5V25.5C25.5 26.3284 24.8284 27 24 27C23.1716 27 22.5 26.3284 22.5 25.5V16.5Z" fill="white"/>
  <path d="M22.5 31.5C22.5 30.6716 23.1716 30 24 30C24.8284 30 25.5 30.6716 25.5 31.5C25.5 32.3284 24.8284 33 24 33C23.1716 33 22.5 32.3284 22.5 31.5Z" fill="white"/>
</svg> 