<svg xmlns="http://www.w3.org/2000/svg" width="128" height="128" viewBox="0 0 128 128" fill="none">
  <rect width="128" height="128" rx="16" fill="#0F172A"/>
  <path d="M64 28C44.1178 28 28 44.1178 28 64C28 83.8822 44.1178 100 64 100C83.8822 100 100 83.8822 100 64C100 44.1178 83.8822 28 64 28ZM20 64C20 39.6995 39.6995 20 64 20C88.3005 20 108 39.6995 108 64C108 88.3005 88.3005 108 64 108C39.6995 108 20 88.3005 20 64Z" fill="white"/>
  <path d="M60 44C60 41.7909 61.7909 40 64 40C66.2091 40 68 41.7909 68 44V68C68 70.2091 66.2091 72 64 72C61.7909 72 60 70.2091 60 68V44Z" fill="white"/>
  <path d="M60 84C60 81.7909 61.7909 80 64 80C66.2091 80 68 81.7909 68 84C68 86.2091 66.2091 88 64 88C61.7909 88 60 86.2091 60 84Z" fill="white"/>
</svg> 